<svg xmlns="http://www.w3.org/2000/svg" viewBox="0 0 33.237 33.285">
  <g id="Group_483" data-name="Group 483" transform="translate(-25.338 -22.554)">
    <g id="Group_482" data-name="Group 482" transform="translate(25.338 22.554)">
      <g id="Group_474" data-name="Group 474" transform="translate(7.981)">
        <g id="Group_471" data-name="Group 471" transform="translate(0.775 0.775)">
          <g id="Group_470" data-name="Group 470">
            <path id="Path_521" data-name="Path 521" d="M52.348,22.844V46.574H43.593V31.626H28.618V22.844Z" transform="translate(-28.618 -22.844)" fill-opacity="0"/>
          </g>
        </g>
        <g id="Group_473" data-name="Group 473">
          <g id="Group_472" data-name="Group 472">
            <path id="Path_522" data-name="Path 522" d="M28.328,22.554V32.11H29.9V24.1H52.057V46.257H44.076v1.575h9.556V22.554Z" transform="translate(-28.328 -22.554)" fill="#ffffff"/>
          </g>
        </g>
      </g>
      <g id="Group_479" data-name="Group 479" transform="translate(0 7.981)">
        <g id="Group_476" data-name="Group 476" transform="translate(0.774 0.774)">
          <g id="Group_475" data-name="Group 475">
            <path id="Path_523" data-name="Path 523" d="M25.628,25.834V49.563H49.357V25.834ZM48.583,48.789H26.4V26.635H48.583Z" transform="translate(-25.628 -25.834)" fill="#ffffff"/>
          </g>
        </g>
        <g id="Group_478" data-name="Group 478">
          <g id="Group_477" data-name="Group 477">
            <path id="Path_524" data-name="Path 524" d="M25.338,25.544v25.3H50.616v-25.3ZM49.067,49.273H26.886V27.119H49.067Z" transform="translate(-25.338 -25.544)" fill="#ffffff"/>
            <rect id="Rectangle_212" data-name="Rectangle 212" width="22.181" height="22.155" transform="translate(1.549 1.576)" fill-opacity="0"/>
          </g>
        </g>
      </g>
      <g id="Group_481" data-name="Group 481" transform="translate(24.14 24.123)">
        <g id="Group_480" data-name="Group 480" transform="translate(0 0)">
          <path id="Path_525" data-name="Path 525" d="M0,.065,9.8,0l.771.772.735.859L0,1.635Z" transform="translate(0 8) rotate(-45.02)" fill="#ffffff"/>
        </g>
      </g>
    </g>
  </g>
</svg>
